<svg xmlns="http://www.w3.org/2000/svg" width="2379" height="769" viewBox="0 0 2379.496 769.384">
  <g id="Group_18194" data-name="Group 18194" transform="translate(278.664 -145.808)">
    <path id="Path_1650" data-name="Path 1650" d="M2639.477,530.014q101.285-48.626,157.223-160.4,60.609-120.183,13.551-218.211Q2753.918,34.188,2578.8,38.924q-135.9,3.769-269.965,68.148c-90.687,43.528-184.27,119.076-251.039,212.337q-27.3,38.792-60.48,95.947l-98.641,194.8c-16.641,39.557-59.07,97.189-94.367,130.906-26.969,25.751-41.215,35.841-91.168,67.069,0,0,92.258-21.824,149.117-93.372,47.906-60.5,86.9-129.117,121.844-191.841,42.074-75.681,85.055-145.541,96.324-163.586q85.781-136.77,184.527-184.231,116.373-55.8,231.84-59.943,149.039-5.517,197,94.36,27.615,57.372,12.41,145.647-16.025,94.806-70.469,120.83-28.447,13.717-73.137-55.148-55.09-84.066-109.578-90.49-43-5.165-141.586,42.214-44.918,21.543-49.656,24.687-54.182,34.44-111.9,113.618-67.934,93.432-45.82,139.643,23.121,48.143,75.887,68.733l15.875-4.474c12.648-6.037,27.742-16.99,45.188-32.619q29.977-26.931,27.4-40.349l-2.187-1.362q-15.633-3.352-31.629-5.822c-9.785-3.112-17.984-11.576-24.7-25.569q-23.625-49.288,18.777-116.438,38-60.278,89.23-84.831,57.527-27.636,113.93,55.905l48.457,71.821q35.941,53.675,159.2-5.505" transform="translate(-729.973 107.057)" fill="#44362c" opacity="0.03"/>
    <path id="Path_1651" data-name="Path 1651" d="M1904.469,316.871q-101.285,48.626-157.223,160.4-60.609,120.183-13.551,218.211,56.332,117.212,231.449,112.477,135.9-3.769,269.965-68.148c90.688-43.528,184.27-119.076,251.039-212.337q27.3-38.792,60.48-95.947l98.641-194.8c16.641-39.557,59.07-97.189,94.367-130.906,26.969-25.751,41.215-35.841,91.168-67.069,0,0-92.258,21.824-149.117,93.372-47.906,60.5-86.9,129.117-121.844,191.841-42.074,75.681-85.055,145.541-96.324,163.586q-85.781,136.77-184.527,184.231-116.373,55.8-231.84,59.943-149.039,5.517-197-94.36-27.615-57.372-12.41-145.647,16.025-94.806,70.469-120.83,28.447-13.717,73.137,55.148,55.09,84.066,109.578,90.49,43,5.165,141.586-42.214,44.918-21.543,49.656-24.687,54.182-34.44,111.9-113.618,67.934-93.432,45.82-139.643Q2416.77,148.219,2364,127.629l-15.875,4.474c-12.648,6.037-27.742,16.99-45.187,32.619q-29.977,26.931-27.4,40.349l2.188,1.362q15.633,3.352,31.629,5.822c9.785,3.112,17.984,11.576,24.7,25.569q23.625,49.288-18.777,116.438-38,60.278-89.23,84.831-57.527,27.636-113.93-55.905l-48.457-71.821q-35.941-53.675-159.2,5.505" transform="translate(-1991.805 107.057)" fill="#44362c" opacity="0.03"/>
  </g>
</svg>
