<svg xmlns="http://www.w3.org/2000/svg"  viewBox="0 0 27.882 27.687">
  <g id="Iconly_Curved_Calling" data-name="Iconly/Curved/Calling" transform="translate(0.829 0.828)">
    <g id="Calling" transform="translate(0 0)">
      <path id="Stroke_1" data-name="Stroke 1" d="M9.51,0A10.767,10.767,0,0,0,0,9.5" fill="rgba(0,0,0,0)" stroke="#44362c" stroke-linecap="round" stroke-linejoin="round" stroke-width="1.5"/>
      <path id="Stroke_3" data-name="Stroke 3" d="M4.727,0A5.979,5.979,0,0,0,0,4.727" transform="translate(4.783 4.785)" fill="rgba(0,0,0,0)" stroke="#44362c" stroke-linecap="round" stroke-linejoin="round" stroke-width="1.5"/>
      <path id="Stroke_5" data-name="Stroke 5" d="M17.963,17.962C27.28,8.645,25.955,4.378,24.973,3,24.847,2.78,21.737-1.875,18.4.856c-8.274,6.815,2.2,5.851-4.747,12.8S7.671,10.13.856,18.4C-1.875,21.737,2.781,24.847,3,24.972,4.376,25.956,8.645,27.28,17.963,17.962Z" transform="translate(0.531 0.338)" fill="rgba(0,0,0,0)" stroke="#44362c" stroke-linecap="round" stroke-linejoin="round" stroke-width="1.5"/>
    </g>
  </g>
</svg>
