<svg xmlns="http://www.w3.org/2000/svg" viewBox="0 0 31.272 31.272">
  <g id="identy" transform="translate(-2 -2)">
    <g id="Password" transform="translate(2.75 2.75)">
      <path id="Stroke_7" data-name="Stroke 7" d="M0,14.886C0,3.722,3.722,0,14.886,0S29.772,3.722,29.772,14.886,26.05,29.772,14.886,29.772,0,26.05,0,14.886Z" fill="none" stroke="#44362c" stroke-linecap="round" stroke-linejoin="round" stroke-miterlimit="10" stroke-width="1.5"/>
      <g id="Iconly_Curved_Profile" data-name="Iconly/Curved/Profile" transform="translate(10.147 8.218)">
        <g id="Profile" transform="translate(0 0)">
          <path id="Stroke_1" data-name="Stroke 1" d="M4.739,5.054C2.183,5.054,0,4.656,0,3.063S2.169,0,4.739,0,9.477,1.456,9.477,3.049,7.308,5.054,4.739,5.054Z" transform="translate(0 8.282)" fill="none" stroke="#44362c" stroke-linecap="round" stroke-linejoin="round" stroke-miterlimit="10" stroke-width="1.5"/>
          <path id="Stroke_3" data-name="Stroke 3" d="M3.037,6.074a3.027,3.027,0,1,0-.021,0Z" transform="translate(1.696)" fill="none" stroke="#44362c" stroke-linecap="round" stroke-linejoin="round" stroke-miterlimit="10" stroke-width="1.5"/>
        </g>
      </g>
    </g>
  </g>
</svg>
