<svg xmlns="http://www.w3.org/2000/svg" viewBox="0 0 29.661 22.605">
  <g id="licence" transform="translate(0 -60.899)">
    <path id="Path_21617" data-name="Path 21617" d="M1.743,61.195a2.992,2.992,0,0,1,1.385-.3q11.73,0,23.461,0a3.056,3.056,0,0,1,3.072,2.926V80.575A3.056,3.056,0,0,1,26.588,83.5q-11.729,0-23.458,0a3,3,0,0,1-1.39-.3A3.068,3.068,0,0,1,0,80.579V63.825a3.066,3.066,0,0,1,1.743-2.631M1.608,63.2a1.752,1.752,0,0,0-.178.83q0,8.2,0,16.395a1.611,1.611,0,0,0,.907,1.484,2.4,2.4,0,0,0,1.134.162c.363,0,1.089-.008,1.089-.008l1.606.008H17.424l2.138,0,1.615,0,2.131,0h1.62s1.145.005,1.717,0a1.6,1.6,0,0,0,1.116-.47,1.657,1.657,0,0,0,.471-1.229q0-7.994,0-15.989a2.633,2.633,0,0,0-.12-1.05,1.6,1.6,0,0,0-1.414-1c-.527-.016-1.054,0-1.581-.009-.257.462-.492.937-.747,1.4a.712.712,0,0,1-1.274-.635c.124-.258.268-.506.4-.762H21.362c-.253.466-.494.939-.748,1.4a.713.713,0,0,1-1.254-.678c.122-.244.257-.482.382-.725H17.608c-.245.458-.485.919-.731,1.376a.714.714,0,1,1-1.276-.64c.123-.249.26-.49.386-.736-.711,0-1.423,0-2.134,0-.244.461-.485.925-.733,1.385a.737.737,0,0,1-.913.334.726.726,0,0,1-.36-.976c.123-.251.262-.494.39-.743-.712,0-1.425,0-2.137,0-.244.465-.488.93-.737,1.392a.713.713,0,0,1-1.27-.648c.123-.253.264-.5.392-.746-.71,0-1.42,0-2.131,0-.255.468-.5.943-.751,1.409a.713.713,0,0,1-1.25-.684c.123-.243.257-.481.381-.724-.572,0-1.145,0-1.718,0A1.6,1.6,0,0,0,1.608,63.2Z" fill="#44362c"/>
    <path id="Path_21619" data-name="Path 21619" d="M269.012,189.306a1.776,1.776,0,0,1,.261-.016c1.237,0,2.475,0,3.713,0a.728.728,0,0,1,.724.846.741.741,0,0,1-.722.58q-1.917,0-3.833,0a.712.712,0,0,1-.143-1.412Z" transform="translate(-252.882 -120.953)" fill="#44362c"/>
    <path id="Path_21620" data-name="Path 21620" d="M268.945,248.853a2.506,2.506,0,0,1,.559-.03q3.942,0,7.883,0a.759.759,0,0,1,.885.754.739.739,0,0,1-.776.677q-4.171,0-8.342,0a.73.73,0,0,1-.723-.732A.744.744,0,0,1,268.945,248.853Z" transform="translate(-252.88 -177.028)" fill="#44362c"/>
    <path id="Path_21621" data-name="Path 21621" d="M269.032,298.009c2.818-.022,5.637,0,8.456-.009a.744.744,0,0,1,.74.51.723.723,0,0,1-.682.916c-2.781.005-5.563,0-8.344,0a.741.741,0,0,1-.78-.622A.727.727,0,0,1,269.032,298.009Z" transform="translate(-252.864 -223.364)" fill="#44362c"/>
    <g id="car" transform="translate(2.83 67.395)">
      <path id="Path_1592" data-name="Path 1592" d="M167.078,258.356h4.735a.178.178,0,1,0,0-.356h-4.735a.178.178,0,1,0,0,.356Z" transform="translate(-163.519 -252.891)" fill="#44362c" stroke="#44362c" stroke-width="0.2"/>
      <path id="Path_1593" data-name="Path 1593" d="M167.078,221.356h4.735a.178.178,0,1,0,0-.356h-4.735a.178.178,0,1,0,0,.356Z" transform="translate(-163.519 -216.99)" fill="#44362c" stroke="#44362c" stroke-width="0.2"/>
      <path id="Path_1594" data-name="Path 1594" d="M363.969,215.871h1.625a.936.936,0,0,0,0-1.871h-1.332a.181.181,0,0,0-.175.147l-.294,1.522a.168.168,0,0,0,.038.143A.174.174,0,0,0,363.969,215.871Zm.441-1.515h1.184a.579.579,0,1,1,0,1.159h-1.409Z" transform="translate(-355.896 -210.198)" fill="#44362c" stroke="#44362c" stroke-width="0.2"/>
      <path id="Path_1595" data-name="Path 1595" d="M51.642,214.147a.181.181,0,0,0-.175-.147H50.136a.936.936,0,0,0,0,1.871h1.626a.173.173,0,0,0,.137-.059.167.167,0,0,0,.038-.142Zm-1.506,1.368a.579.579,0,1,1,0-1.159H51.32l.225,1.159Z" transform="translate(-48.036 -210.198)" fill="#44362c" stroke="#44362c" stroke-width="0.2"/>
      <path id="Path_1596" data-name="Path 1596" d="M167.078,240.356h4.735a.178.178,0,0,0,0-.356h-4.735a.178.178,0,0,0,0,.356Z" transform="translate(-163.519 -235.425)" fill="#44362c" stroke="#44362c" stroke-width="0.2"/>
      <path id="Path_1597" data-name="Path 1597" d="M21.756,92.624h-.024V90.253a1.019,1.019,0,0,0-.824-1.082l-.723-2.427A.959.959,0,0,0,19.311,86H12.689a.961.961,0,0,0-.875.745l-.721,2.428a1.017,1.017,0,0,0-.824,1.08v2.372h-.024a.216.216,0,0,0-.171.081.322.322,0,0,0-.072.206v1.06a.322.322,0,0,0,.072.206.216.216,0,0,0,.172.081h.119l.007,1.227a.571.571,0,0,0,.512.615h0l.992-.006a.471.471,0,0,0,.361-.185.7.7,0,0,0,.147-.442l-.007-1.209h7.234l.007,1.224a.574.574,0,0,0,.512.618h0l.992-.006a.471.471,0,0,0,.361-.185.7.7,0,0,0,.147-.442l-.007-1.209h.125a.216.216,0,0,0,.172-.081A.322.322,0,0,0,22,93.971v-1.06a.322.322,0,0,0-.072-.206A.216.216,0,0,0,21.756,92.624Zm-9.668-5.753a.663.663,0,0,1,.6-.515h6.622a.663.663,0,0,1,.6.515l.687,2.307H11.4Zm-1.528,3.381a.8.8,0,0,1,.172-.51.537.537,0,0,1,.419-.208h9.7a.537.537,0,0,1,.419.208.8.8,0,0,1,.172.51v2.372h-2.9l-.471-.759a.142.142,0,0,0-.116-.073H13.857a.142.142,0,0,0-.117.073l-.471.759H10.561Zm7.611,2.372H13.637l.293-.475h3.949Zm-6.14,3.036a.2.2,0,0,1-.155.077l-.992.006h0a.2.2,0,0,1-.155-.075.294.294,0,0,1-.065-.187l-.007-1.223h1.432l.007,1.212a.3.3,0,0,1-.063.19Zm9.251,0a.2.2,0,0,1-.155.077l-.992.006h0a.245.245,0,0,1-.22-.263l-.007-1.222h1.432l.007,1.212A.3.3,0,0,1,21.282,95.661Zm.425-1.759H10.293v-.921H21.707Z" transform="translate(-10 -86)" fill="#44362c" stroke="#44362c" stroke-width="0.2"/>
      <path id="Path_1598" data-name="Path 1598" d="M136.274,112h-3.023a.178.178,0,1,0,0,.356h3.023a.178.178,0,1,0,0-.356Z" transform="translate(-130.268 -111.228)" fill="#44362c" stroke="#44362c" stroke-width="0.2"/>
      <path id="Path_1599" data-name="Path 1599" d="M109.828,112h-.145a.178.178,0,0,0,0,.356h.145a.178.178,0,1,0,0-.356Z" transform="translate(-107.097 -111.228)" fill="#44362c" stroke="#44362c" stroke-width="0.2"/>
    </g>
  </g>
</svg>
