<svg xmlns="http://www.w3.org/2000/svg"  viewBox="0 0 30.65 36.082">
  <g id="nation" transform="translate(-38.555)">
    <path id="Path_21622" data-name="Path 21622" d="M59.283,0h.734a7.18,7.18,0,0,1,4.489,1.923,7.105,7.105,0,0,1,1.15,8.991,15.368,15.368,0,0,1,.861,18.5c-.178.286-.419.62-.8.594a.705.705,0,0,1-.581-1.069,15.027,15.027,0,0,0,1.44-2.493,14.014,14.014,0,0,0,.417-10.386l-2.328,2.331a1.71,1.71,0,0,0-.521,1.126c-.023.8.011,1.6-.016,2.4a3.138,3.138,0,0,1-.937,2.044q-2.132,2.133-4.264,4.267a3.179,3.179,0,0,1-3.543.564,5.735,5.735,0,0,1-1.411-1.124c-.48-.459-.976-.9-1.446-1.373a3.166,3.166,0,0,1-.251-3.869,7.362,7.362,0,0,0,.7-.924,1.882,1.882,0,0,0,.168-.858c0-1.293,0-2.586,0-3.879A1.728,1.728,0,0,0,52.074,15.2a5.43,5.43,0,0,0-1.228-.185,3.163,3.163,0,0,1-1.655-.882q-1.5-1.5-2.994-3a3.548,3.548,0,0,1-.922-1.349,13.943,13.943,0,0,0-4.913,7.631q1.877,1.882,3.755,3.762a1.042,1.042,0,0,0,.6.34,7.871,7.871,0,0,1,2.252.19,2.377,2.377,0,0,1,1.485,2.18c0,1.669,0,3.338,0,5.006a2.427,2.427,0,0,1-.3,1.241A14.123,14.123,0,0,1,46.741,31.7a1.353,1.353,0,0,0-.178.893,13.92,13.92,0,0,0,14.267.223.7.7,0,1,1,.716,1.209,15.478,15.478,0,0,1-7.15,2.06h-.763a15.2,15.2,0,0,1-7.388-2.092A15.615,15.615,0,0,1,38.832,23.6a15.007,15.007,0,0,1,.707-8.214,15.621,15.621,0,0,1,5.567-7.169,15.354,15.354,0,0,1,7.637-2.785,7.121,7.121,0,0,1,2.248-3.693A7.237,7.237,0,0,1,59.283,0m.105,1.426a2.157,2.157,0,0,0-1.882,2.1,4.59,4.59,0,0,0,.166,1.765,2.145,2.145,0,0,0,3.916.092A2.343,2.343,0,0,0,61.8,4.295a4,4,0,0,0-.157-1.537,2.156,2.156,0,0,0-2.254-1.331M54.267,5.24a5.706,5.706,0,0,0,.279,4.378c.822-.311,1.648-.616,2.471-.925.106-.037.243-.1.238-.232.042-.426.066-.852.1-1.278a3.578,3.578,0,0,1-1.261-2.6,7.125,7.125,0,0,1,.141-2.037A5.709,5.709,0,0,0,54.267,5.24m8.8-2.7a7.219,7.219,0,0,1,.14,2.035,3.582,3.582,0,0,1-1.26,2.6c.035.425.061.851.1,1.275,0,.125.109.2.213.227.838.306,1.673.622,2.507.937a5.7,5.7,0,0,0-1.7-7.076M46.51,8.919a1.861,1.861,0,0,0,.579,1.116q1.568,1.564,3.132,3.133a1.728,1.728,0,0,0,1.192.49,3.254,3.254,0,0,1,1.138.214,3.145,3.145,0,0,1,2,2.836c.007,1.362,0,2.724,0,4.085a3.113,3.113,0,0,1-.793,2.059,2.227,2.227,0,0,0-.474.653,1.766,1.766,0,0,0,.379,1.941c.505.481,1.016.957,1.524,1.436a2.851,2.851,0,0,0,.93.691,1.7,1.7,0,0,0,1.816-.336c1.4-1.391,2.789-2.794,4.188-4.188a1.786,1.786,0,0,0,.6-1.208c.017-.772,0-1.545.011-2.318a3.116,3.116,0,0,1,.9-2.085c.922-.929,1.849-1.851,2.772-2.779a14.586,14.586,0,0,0-1.6-2.547C63.7,13.64,62.6,15.174,61.489,16.7a2.3,2.3,0,0,1-2.242.881,2.258,2.258,0,0,1-1.457-.913Q56.1,14.337,54.419,12a13.533,13.533,0,0,1-.961-1.431,7.31,7.31,0,0,1-.912-3.7A13.974,13.974,0,0,0,46.51,8.919M58.716,7.9c-.027.28-.033.563-.074.842a1.707,1.707,0,0,1-.585.987,2.845,2.845,0,0,0,1.6.644,2.8,2.8,0,0,0,1.591-.644,1.9,1.9,0,0,1-.452-.572A3.578,3.578,0,0,1,60.585,7.9a3.755,3.755,0,0,1-1.869,0m-3.407,2.927c1.214,1.677,2.421,3.359,3.639,5.032a.886.886,0,0,0,1.41,0q1.819-2.513,3.634-5.029c-.432-.165-.866-.323-1.3-.486a4.642,4.642,0,0,1-3.037,1.443,4.649,4.649,0,0,1-3.048-1.443c-.436.154-.868.319-1.3.486m-15.252,8.28A14.051,14.051,0,0,0,45.23,31.644c.209-.852.958-1.37,1.522-1.98a1.015,1.015,0,0,0,.293-.771q0-2.468,0-4.937a.963.963,0,0,0-.847-1c-.5-.03-1,.008-1.5-.019a2.363,2.363,0,0,1-1.5-.691C42.147,21.2,41.106,20.151,40.057,19.107Z" fill="#44362c"/>
    <path id="Path_21623" data-name="Path 21623" d="M386.059,438.143a.7.7,0,1,1-.225,1.2A.693.693,0,0,1,386.059,438.143Z" transform="translate(-322.562 -407.231)" fill="#44362c"/>
  </g>
</svg>
